<?xml version="1.0" encoding="UTF-8"?><svg id="Layer_1" xmlns="http://www.w3.org/2000/svg" viewBox="0 0 326.57 116.39"><path d="M36.02,116.34c-9.73-.39-17.69-3.05-23.92-7.99-1.19-.94-4.02-3.78-4.97-4.97-2.52-3.17-4.24-6.26-5.39-9.69C-1.77,83.14.04,69.29,6.94,54.1c5.9-13.01,15.01-25.91,30.91-43.78,2.34-2.63,9.31-10.32,9.36-10.32.02,0-.36.66-.84,1.46-4.13,6.92-7.67,15.07-9.59,22.13-3.09,11.32-2.72,21.04,1.09,28.58,2.63,5.19,7.14,9.69,12.21,12.18,8.88,4.35,21.88,4.71,37.75,1.05,1.09-.25,55.25-14.63,120.36-31.95C273.29,16.13,326.57,1.97,326.57,1.98c.02.02-151.26,64.75-229.79,98.33-12.44,5.32-15.76,6.66-21.61,8.71-14.95,5.25-28.33,7.75-39.16,7.32Z"/></svg>